<?xml version="1.0" standalone="no"?>
<!DOCTYPE svg PUBLIC "-//W3C//DTD SVG 20010904//EN"
 "http://www.w3.org/TR/2001/REC-SVG-20010904/DTD/svg10.dtd">
<svg version="1.0" xmlns="http://www.w3.org/2000/svg"
 width="225.000000pt" height="225.000000pt" viewBox="0 0 225.000000 225.000000"
 preserveAspectRatio="xMidYMid meet">

<g transform="translate(0.000000,225.000000) scale(0.100000,-0.100000)"
fill="#000000" stroke="none">
<path d="M1052 2100 c-52 -32 -74 -94 -82 -225 -5 -96 -10 -117 -35 -165 -29
-53 -213 -250 -235 -250 -5 0 -10 12 -10 28 0 53 2 53 -261 50 l-244 -3 0
-630 0 -630 239 -3 c167 -2 243 1 252 9 8 6 14 27 14 46 0 24 4 34 13 30 61
-23 322 -104 415 -129 113 -30 127 -31 369 -35 246 -5 254 -4 299 17 93 45
131 158 84 250 l-20 40 37 15 c50 21 82 51 104 100 25 55 24 103 -5 158 l-24
45 28 12 c59 24 110 105 110 172 0 40 -30 106 -58 132 l-21 19 34 40 c74 86
51 207 -50 264 -39 22 -48 23 -334 23 -275 0 -293 1 -286 18 68 175 33 395
-83 524 -84 94 -177 122 -250 78z m127 -59 c51 -26 108 -92 137 -158 59 -133
48 -323 -23 -405 -8 -9 -13 -25 -11 -35 3 -17 24 -18 338 -23 329 -5 336 -5
367 -28 65 -46 60 -139 -9 -182 -27 -16 -50 -20 -125 -20 -103 0 -123 -5 -123
-29 0 -34 22 -41 121 -41 84 0 100 -3 130 -23 70 -47 70 -147 0 -194 -31 -21
-45 -23 -162 -23 -103 0 -131 -3 -143 -16 -12 -12 -13 -20 -6 -35 9 -16 22
-19 91 -19 94 0 142 -18 164 -61 20 -37 19 -94 -1 -125 -32 -48 -67 -58 -227
-62 -115 -3 -150 -7 -154 -18 -12 -31 17 -44 101 -44 60 0 90 -5 116 -18 45
-25 74 -81 66 -126 -8 -43 -63 -93 -111 -102 -65 -12 -434 3 -515 21 -88 20
-371 104 -453 136 l-57 22 0 468 0 467 63 50 c76 61 172 161 216 225 51 75 71
143 71 242 0 154 44 204 139 156z m-559 -1136 l0 -575 -187 2 -188 3 -3 573
-2 572 190 0 190 0 0 -575z"/>
</g>
</svg>
